<?xml version="1.0" encoding="UTF-8"?><svg id="Camada_2" xmlns="http://www.w3.org/2000/svg" viewBox="0 0 808.8 523.94"><defs><style>.cls-1{fill:#fff;}.cls-2{fill:#3ec863;}</style></defs><g id="e"><g><path class="cls-2" d="M0,136.39v21.09c0,1.33,1.26,2.3,2.55,1.95l45.46-12.18c1.28-.34,2.55,.62,2.55,1.95v95.83c0,1.33,1.26,2.3,2.55,1.95l21.23-5.69c.88-.24,1.5-1.04,1.5-1.95v-98c0-.92,.61-1.72,1.5-1.95l47.55-12.74c.88-.24,1.5-1.04,1.5-1.95v-21.09c0-1.33-1.26-2.3-2.55-1.95L1.5,134.44c-.88,.24-1.5,1.04-1.5,1.95Z"/><path class="cls-2" d="M151.65,95.76v71.64c0,1.33,1.26,2.3,2.55,1.95l171.84-46.04c1.28-.34,2.55,.62,2.55,1.95v21.09c0,.92-.61,1.72-1.5,1.95l-173.93,46.61c-.88,.24-1.5,1.04-1.5,1.95v21.11c0,1.33,1.26,2.3,2.55,1.95l198.16-53.12c.88-.24,1.5-1.04,1.5-1.95V92.66c0-1.33-1.27-2.3-2.55-1.95l-171.83,46.58c-1.29,.35-2.55-.62-2.55-1.95v-20.56c0-.91,.61-1.71,1.49-1.95l173.94-47.12c.88-.24,1.49-1.04,1.49-1.95v-21.09c0-1.33-1.26-2.3-2.55-1.95l-198.16,53.1c-.88,.24-1.5,1.04-1.5,1.95Z"/><path class="cls-2" d="M380.63,32.85l21.23-5.69c1.28-.34,2.55,.62,2.55,1.95V124.93c0,1.34,1.27,2.3,2.56,1.95l71.78-19.79c.88-.24,1.48-1.04,1.48-1.95V7.71c0-.92,.61-1.72,1.5-1.95L502.97,.07c1.28-.34,2.55,.62,2.55,1.95V124.22c0,.92-.61,1.72-1.5,1.95l-122.33,32.78c-1.28,.34-2.55-.62-2.55-1.95V34.8c0-.92,.61-1.72,1.5-1.95Z"/><path class="cls-2" d="M530.79,95.27v21.09c0,1.33,1.26,2.3,2.55,1.95l21.23-5.69c.88-.24,1.5-1.04,1.5-1.95v-21.09c0-1.33-1.26-2.3-2.55-1.95l-21.23,5.69c-.88,.24-1.5,1.04-1.5,1.95Z"/><path class="cls-2" d="M681.42,206.86v21.09c0,1.33,1.26,2.3,2.55,1.95l21.23-5.69c.88-.24,1.5-1.04,1.5-1.95v-21.09c0-1.33-1.26-2.3-2.55-1.95l-21.23,5.69c-.88,.24-1.5,1.04-1.5,1.95Z"/><g><path class="cls-2" d="M176.93,240.58v72.77c0,.92-.61,1.72-1.5,1.95l-22.28,5.97c-.88,.24-1.5,1.04-1.5,1.95v21.32c0,1.34,1.28,2.31,2.57,1.95l20.15-5.62c1.29-.36,2.57,.61,2.57,1.95v20.2c0,1.34,1.28,2.31,2.57,1.95l21.25-5.93c.87-.24,1.48-1.04,1.48-1.95v-122.21c0-1.33-1.26-2.3-2.55-1.95l-21.25,5.69c-.88,.24-1.5,1.04-1.5,1.95Z"/><path class="cls-2" d="M123.85,278.25l-20.2,5.41c-1.28,.34-2.55-.62-2.55-1.95v-19.67c0-1.33-1.26-2.3-2.55-1.95l-21.25,5.69c-.88,.24-1.5,1.04-1.5,1.95v122.45c0,1.34,1.28,2.31,2.57,1.95l21.25-5.93c.87-.24,1.48-1.04,1.48-1.95v-72.81c0-.91,.6-1.7,1.48-1.95l22.33-6.23c.87-.24,1.48-1.04,1.48-1.95v-21.12c0-1.33-1.26-2.3-2.55-1.95Z"/><path class="cls-2" d="M126.36,304.47v21.6c0,1.34,1.28,2.31,2.57,1.95l21.25-5.93c.87-.24,1.48-1.04,1.48-1.95v-21.37c0-1.33-1.26-2.3-2.55-1.95l-21.25,5.69c-.88,.24-1.5,1.04-1.5,1.95Z"/></g><path id="o" class="cls-2" d="M227.48,227.09v121.8c0,1.33,1.26,2.29,2.54,1.95l122.33-32.39c.89-.23,1.5-1.04,1.5-1.95v-122.19c0-1.33-1.26-2.3-2.55-1.95l-122.33,32.78c-.88,.24-1.5,1.04-1.5,1.95Zm99.6,72.78l-71.78,19.01c-1.28,.34-2.54-.63-2.54-1.95v-71.41c0-.92,.61-1.72,1.5-1.95l71.78-19.23c1.28-.34,2.55,.62,2.55,1.95v71.64c0,.92-.62,1.72-1.5,1.95Z"/><path class="cls-2" d="M477.7,259.35l-70.75,18.73c-1.28,.34-2.54-.63-2.54-1.95v-71.4c0-.92,.62-1.72,1.5-1.95l71.78-19.01c1.28-.34,2.54,.63,2.54,1.95v70.31c0,1.33,1.27,2.3,2.55,1.95l21.23-5.77c.88-.24,1.49-1.04,1.49-1.95v-71.39c0-1.33-1.27-2.3-2.55-1.95l-20.17,5.48c-1.29,.35-2.55-.62-2.55-1.95v-20.03c0-1.33-1.26-2.3-2.54-1.95l-97.06,25.89c-.89,.24-1.5,1.04-1.5,1.95v121.8c0,1.33,1.26,2.29,2.54,1.96l97.06-25.58c.89-.23,1.51-1.04,1.51-1.96v-21.22c0-1.33-1.26-2.29-2.54-1.95Z"/><path class="cls-2" d="M530.79,145.82v122.19c0,1.33,1.26,2.3,2.55,1.95l122.33-32.78c.88-.24,1.5-1.04,1.5-1.95v-21.09c0-1.33-1.26-2.3-2.55-1.95l-96.01,25.73c-1.28,.34-2.55-.62-2.55-1.95v-21.09c0-.92,.61-1.72,1.5-1.95l72.83-19.51c.88-.24,1.5-1.04,1.5-1.95v-21.09c0-1.33-1.26-2.3-2.55-1.95l-70.74,18.95c-1.28,.34-2.55-.62-2.55-1.95v-21.09c0-.92,.61-1.72,1.5-1.95l98.11-26.29c.88-.24,1.5-1.04,1.5-1.95v-21.09c0-1.33-1.26-2.3-2.55-1.95l-122.33,32.78c-.88,.24-1.5,1.04-1.5,1.95Z"/></g><g><path class="cls-1" d="M502.58,303.79l-96.48,25.89c-.88,.24-1.5,1.04-1.5,1.95,0,0,.04,24.95,.04,26.28v95.83c0,1.33,1.26,2.3,2.55,1.95l21.23-5.69c.88-.24,1.5-1.04,1.5-1.95v-98c0-.92,.61-1.72,1.5-1.95l48.42-12.95v24.52c-.05,.5-.39,.93-.88,1.05l-1.28,.33c-.1,.01-.21,.02-.31,.05l-21.25,5.69c-.88,.24-1.5,1.04-1.5,1.95v46.5c0,1.34,1.28,2.31,2.57,1.95l21.25-5.93c.87-.24,1.48-1.04,1.48-1.95v-22.84c0-.39,.26-.73,.63-.83l1.74-.48s.08,0,.12-.02l21.25-5.93c.87-.24,1.48-1.04,1.48-1.95v-71.53c0-1.33-1.26-2.3-2.55-1.95Z"/><path class="cls-1" d="M502.58,404.56l-21.25,5.69c-.88,.24-1.5,1.04-1.5,1.95v21.6c0,1.34,1.28,2.31,2.57,1.95l21.25-5.93c.87-.24,1.48-1.04,1.48-1.95v-21.36c0-1.33-1.26-2.3-2.55-1.95Z"/><path class="cls-1" d="M224.47,378.43l-21.25,5.69c-.88,.24-1.5,1.04-1.5,1.95v71.13c0,1.34,1.28,2.31,2.57,1.95l21.25-5.93c.87-.24,1.48-1.04,1.48-1.95v-70.9c0-1.33-1.26-2.3-2.55-1.95Z"/><path class="cls-1" d="M123.77,405.21l-21.25,5.69c-.88,.24-1.5,1.04-1.5,1.95v71.3c0,1.34,1.28,2.31,2.57,1.95l21.25-5.93c.87-.24,1.48-1.04,1.48-1.95v-71.06c0-1.33-1.26-2.3-2.55-1.95Z"/><path class="cls-1" d="M655.32,314.02l-94.97,25.41c-1.29,.35-2.55-.62-2.55-1.95v-20.56c0-.91,.61-1.71,1.49-1.95l97.09-25.95c.88-.24,1.49-1.04,1.49-1.95v-21.09c0-1.33-1.26-2.3-2.55-1.95l-121.3,31.92c-.88,.24-1.5,1.04-1.5,1.95v71.64c0,1.33,1.26,2.3,2.55,1.95l94.98-24.87c1.28-.34,2.55,.62,2.55,1.95v21.09c0,.92-.61,1.72-1.5,1.95l-97.08,25.43c-.88,.24-1.5,1.04-1.5,1.95v21.11c0,1.33,1.26,2.3,2.55,1.95l121.31-31.94c.88-.24,1.5-1.04,1.5-1.95v-72.19c0-1.33-1.27-2.3-2.55-1.95Z"/><path class="cls-1" d="M806.26,224.48l-122.33,32.78c-.88,.24-1.5,1.04-1.5,1.95v121.8c0,1.33,1.26,2.29,2.54,1.95l122.33-32.39c.89-.23,1.5-1.04,1.5-1.95v-122.19c0-1.33-1.26-2.3-2.55-1.95Zm-22.73,105.56c0,.92-.62,1.72-1.5,1.95l-71.78,19.01c-1.28,.34-2.54-.63-2.54-1.95v-71.41c0-.92,.61-1.72,1.5-1.95l71.78-19.23c1.28-.34,2.55,.62,2.55,1.95v71.64Z"/><path class="cls-1" d="M375.89,337.83l-122.33,32.78c-.88,.24-1.5,1.04-1.5,1.95v122.19c0,1.33,1.26,2.3,2.55,1.95l122.33-32.78c.88-.24,1.5-1.04,1.5-1.95v-21.09c0-1.33-1.26-2.3-2.55-1.95l-96.01,25.73c-1.28,.34-2.55-.62-2.55-1.95v-21.09c0-.92,.61-1.72,1.5-1.95l72.83-19.51c.88-.24,1.5-1.04,1.5-1.95v-21.09c0-1.33-1.26-2.3-2.55-1.95l-70.74,18.95c-1.28,.34-2.55-.62-2.55-1.95v-21.09c0-.92,.61-1.72,1.5-1.95l98.11-26.29c.88-.24,1.5-1.04,1.5-1.95v-21.09c0-1.33-1.26-2.3-2.55-1.95Z"/><path class="cls-1" d="M199.68,460.27l-21.25,5.69c-.88,.24-1.5,1.04-1.5,1.95v21.6c0,1.34,1.28,2.31,2.57,1.95l21.25-5.93c.87-.24,1.48-1.04,1.48-1.95v-21.37c0-1.33-1.26-2.3-2.55-1.95Z"/><path class="cls-1" d="M174.4,492.67l-21.25,5.69c-.88,.24-1.5,1.04-1.5,1.95v21.6c0,1.34,1.28,2.31,2.57,1.95l21.25-5.93c.87-.24,1.48-1.04,1.48-1.95v-21.36c0-1.33-1.26-2.3-2.55-1.95Z"/><path class="cls-1" d="M151.65,475.9c0-1.33-1.26-2.3-2.55-1.95l-21.25,5.69c-.88,.24-1.5,1.04-1.5,1.95v21.6c0,1.34,1.28,2.31,2.57,1.95l21.25-5.93c.87-.24,1.48-1.04,1.48-1.95v-21.36Z"/></g></g></svg>