<?xml version="1.0" encoding="UTF-8"?><svg id="Camada_2" xmlns="http://www.w3.org/2000/svg" viewBox="0 0 657.17 392.2"><defs><style>.cls-1{fill:#3ec863;}</style></defs><g id="t"><path class="cls-1" d="M0,136.39v21.09c0,1.33,1.26,2.3,2.55,1.95l45.46-12.18c1.28-.34,2.55,.62,2.55,1.95v95.83c0,1.33,1.26,2.3,2.55,1.95l21.23-5.69c.88-.24,1.5-1.04,1.5-1.95v-98c0-.92,.61-1.72,1.5-1.95l47.55-12.74c.88-.24,1.5-1.04,1.5-1.95v-21.09c0-1.33-1.26-2.3-2.55-1.95L1.5,134.44c-.88,.24-1.5,1.04-1.5,1.95Z"/></g><g id="s"><path class="cls-1" d="M151.65,95.76v71.64c0,1.33,1.26,2.3,2.55,1.95l171.84-46.04c1.28-.34,2.55,.62,2.55,1.95v21.09c0,.92-.61,1.72-1.5,1.95l-173.93,46.61c-.88,.24-1.5,1.04-1.5,1.95v21.11c0,1.33,1.26,2.3,2.55,1.95l198.16-53.12c.88-.24,1.5-1.04,1.5-1.95V92.66c0-1.33-1.27-2.3-2.55-1.95l-171.83,46.58c-1.29,.35-2.55-.62-2.55-1.95v-20.56c0-.91,.61-1.71,1.49-1.95l173.94-47.12c.88-.24,1.49-1.04,1.49-1.95v-21.09c0-1.33-1.26-2.3-2.55-1.95l-198.16,53.1c-.88,.24-1.5,1.04-1.5,1.95Z"/></g><g id="u"><path class="cls-1" d="M380.63,32.85l21.23-5.69c1.28-.34,2.55,.62,2.55,1.95V124.93c0,1.34,1.27,2.3,2.56,1.95l71.78-19.79c.88-.24,1.48-1.04,1.48-1.95V7.71c0-.92,.61-1.72,1.5-1.95L502.97,.07c1.28-.34,2.55,.62,2.55,1.95V124.22c0,.92-.61,1.72-1.5,1.95l-122.33,32.78c-1.28,.34-2.55-.62-2.55-1.95V34.8c0-.92,.61-1.72,1.5-1.95Z"/></g><g id="_."><path class="cls-1" d="M530.79,95.27v21.09c0,1.33,1.26,2.3,2.55,1.95l21.23-5.69c.88-.24,1.5-1.04,1.5-1.95v-21.09c0-1.33-1.26-2.3-2.55-1.95l-21.23,5.69c-.88,.24-1.5,1.04-1.5,1.95Z"/></g><g id="n"><g><path class="cls-1" d="M176.93,240.58v72.77c0,.92-.61,1.72-1.5,1.95l-22.28,5.97c-.88,.24-1.5,1.04-1.5,1.95v21.32c0,1.34,1.28,2.31,2.57,1.95l20.15-5.62c1.29-.36,2.57,.61,2.57,1.95v20.2c0,1.34,1.28,2.31,2.57,1.95l21.25-5.93c.87-.24,1.48-1.04,1.48-1.95v-122.21c0-1.33-1.26-2.3-2.55-1.95l-21.25,5.69c-.88,.24-1.5,1.04-1.5,1.95Z"/><path class="cls-1" d="M123.85,278.25l-20.2,5.41c-1.28,.34-2.55-.62-2.55-1.95v-19.67c0-1.33-1.26-2.3-2.55-1.95l-21.25,5.69c-.88,.24-1.5,1.04-1.5,1.95v122.45c0,1.34,1.28,2.31,2.57,1.95l21.25-5.93c.87-.24,1.48-1.04,1.48-1.95v-72.81c0-.91,.6-1.7,1.48-1.95l22.33-6.23c.87-.24,1.48-1.04,1.48-1.95v-21.12c0-1.33-1.26-2.3-2.55-1.95Z"/><path class="cls-1" d="M126.36,304.47v21.6c0,1.34,1.28,2.31,2.57,1.95l21.25-5.93c.87-.24,1.48-1.04,1.48-1.95v-21.37c0-1.33-1.26-2.3-2.55-1.95l-21.25,5.69c-.88,.24-1.5,1.04-1.5,1.95Z"/></g></g><g id="o"><path id="o-2" class="cls-1" d="M227.48,227.09v121.8c0,1.33,1.26,2.29,2.54,1.95l122.33-32.39c.89-.23,1.5-1.04,1.5-1.95v-122.19c0-1.33-1.26-2.3-2.55-1.95l-122.33,32.78c-.88,.24-1.5,1.04-1.5,1.95Zm99.6,72.78l-71.78,19.01c-1.28,.34-2.54-.63-2.54-1.95v-71.41c0-.92,.61-1.72,1.5-1.95l71.78-19.23c1.28-.34,2.55,.62,2.55,1.95v71.64c0,.92-.62,1.72-1.5,1.95Z"/></g><g id="d"><path class="cls-1" d="M477.7,259.35l-70.75,18.73c-1.28,.34-2.54-.63-2.54-1.95v-71.4c0-.92,.62-1.72,1.5-1.95l71.78-19.01c1.28-.34,2.54,.63,2.54,1.95v70.31c0,1.33,1.27,2.3,2.55,1.95l21.23-5.77c.88-.24,1.49-1.04,1.49-1.95v-71.39c0-1.33-1.27-2.3-2.55-1.95l-20.17,5.48c-1.29,.35-2.55-.62-2.55-1.95v-20.03c0-1.33-1.26-2.3-2.54-1.95l-97.06,25.89c-.89,.24-1.5,1.04-1.5,1.95v121.8c0,1.33,1.26,2.29,2.54,1.96l97.06-25.58c.89-.23,1.51-1.04,1.51-1.96v-21.22c0-1.33-1.26-2.29-2.54-1.95Z"/></g><g id="e"><path class="cls-1" d="M530.79,145.82v122.19c0,1.33,1.26,2.3,2.55,1.95l122.33-32.78c.88-.24,1.5-1.04,1.5-1.95v-21.09c0-1.33-1.26-2.3-2.55-1.95l-96.01,25.73c-1.28,.34-2.55-.62-2.55-1.95v-21.09c0-.92,.61-1.72,1.5-1.95l72.83-19.51c.88-.24,1.5-1.04,1.5-1.95v-21.09c0-1.33-1.26-2.3-2.55-1.95l-70.74,18.95c-1.28,.34-2.55-.62-2.55-1.95v-21.09c0-.92,.61-1.72,1.5-1.95l98.11-26.29c.88-.24,1.5-1.04,1.5-1.95v-21.09c0-1.33-1.26-2.3-2.55-1.95l-122.33,32.78c-.88,.24-1.5,1.04-1.5,1.95Z"/></g></svg>